<?xml version="1.0" encoding="UTF-8" standalone="no"?><svg xmlns="http://www.w3.org/2000/svg" xmlns:xlink="http://www.w3.org/1999/xlink" contentScriptType="application/ecmascript" contentStyleType="text/css" height="369px" preserveAspectRatio="none" style="width:528px;height:369px;" version="1.1" viewBox="0 0 528 369" width="528px" zoomAndPan="magnify"><defs><filter height="300%" id="f1kn4tesogeyiw" width="300%" x="-1" y="-1"><feGaussianBlur result="blurOut" stdDeviation="2.0"/><feColorMatrix in="blurOut" result="blurOut2" type="matrix" values="0 0 0 0 0 0 0 0 0 0 0 0 0 0 0 0 0 0 .4 0"/><feOffset dx="4.0" dy="4.0" in="blurOut2" result="blurOut3"/><feBlend in="SourceGraphic" in2="blurOut3" mode="normal"/></filter></defs><g><rect fill="#FFFFFF" filter="url(#f1kn4tesogeyiw)" height="46.2656" style="stroke:#000000;stroke-width:2.0;" width="436" x="10" y="163.5625"/><line style="stroke:#A80036;stroke-width:1.0;stroke-dasharray:5.0,5.0;" x1="68" x2="68" y1="88.2969" y2="285.0938"/><line style="stroke:#A80036;stroke-width:1.0;stroke-dasharray:5.0,5.0;" x1="306" x2="306" y1="88.2969" y2="285.0938"/><line style="stroke:#A80036;stroke-width:1.0;stroke-dasharray:5.0,5.0;" x1="392" x2="392" y1="88.2969" y2="285.0938"/><line style="stroke:#A80036;stroke-width:1.0;stroke-dasharray:5.0,5.0;" x1="486" x2="486" y1="88.2969" y2="285.0938"/><text fill="#000000" font-family="sans-serif" font-size="14" lengthAdjust="spacingAndGlyphs" textLength="91" x="20" y="84.9951">Manufacturer</text><ellipse cx="68.5" cy="15" fill="#FEFECE" filter="url(#f1kn4tesogeyiw)" rx="8" ry="8" style="stroke:#A80036;stroke-width:2.0;"/><path d="M68.5,23 L68.5,50 M55.5,31 L81.5,31 M68.5,50 L55.5,65 M68.5,50 L81.5,65 " fill="none" filter="url(#f1kn4tesogeyiw)" style="stroke:#A80036;stroke-width:2.0;"/><text fill="#000000" font-family="sans-serif" font-size="14" lengthAdjust="spacingAndGlyphs" textLength="91" x="20" y="297.0889">Manufacturer</text><ellipse cx="68.5" cy="310.3906" fill="#FEFECE" filter="url(#f1kn4tesogeyiw)" rx="8" ry="8" style="stroke:#A80036;stroke-width:2.0;"/><path d="M68.5,318.3906 L68.5,345.3906 M55.5,326.3906 L81.5,326.3906 M68.5,345.3906 L55.5,360.3906 M68.5,345.3906 L81.5,360.3906 " fill="none" filter="url(#f1kn4tesogeyiw)" style="stroke:#A80036;stroke-width:2.0;"/><rect fill="#FEFECE" filter="url(#f1kn4tesogeyiw)" height="30.2969" style="stroke:#A80036;stroke-width:1.5;" width="61" x="274" y="53"/><text fill="#000000" font-family="sans-serif" font-size="14" lengthAdjust="spacingAndGlyphs" textLength="47" x="281" y="72.9951">SoC[0]</text><rect fill="#FEFECE" filter="url(#f1kn4tesogeyiw)" height="30.2969" style="stroke:#A80036;stroke-width:1.5;" width="61" x="274" y="284.0938"/><text fill="#000000" font-family="sans-serif" font-size="14" lengthAdjust="spacingAndGlyphs" textLength="47" x="281" y="304.0889">SoC[0]</text><rect fill="#FEFECE" filter="url(#f1kn4tesogeyiw)" height="30.2969" style="stroke:#A80036;stroke-width:1.5;" width="79" x="353" y="49"/><rect fill="#FEFECE" filter="url(#f1kn4tesogeyiw)" height="30.2969" style="stroke:#A80036;stroke-width:1.5;" width="79" x="349" y="53"/><text fill="#000000" font-family="sans-serif" font-size="14" lengthAdjust="spacingAndGlyphs" textLength="65" x="356" y="72.9951">SoC[1..N]</text><rect fill="#FEFECE" filter="url(#f1kn4tesogeyiw)" height="30.2969" style="stroke:#A80036;stroke-width:1.5;" width="79" x="353" y="284.0938"/><rect fill="#FEFECE" filter="url(#f1kn4tesogeyiw)" height="30.2969" style="stroke:#A80036;stroke-width:1.5;" width="79" x="349" y="288.0938"/><text fill="#000000" font-family="sans-serif" font-size="14" lengthAdjust="spacingAndGlyphs" textLength="65" x="356" y="308.0889">SoC[1..N]</text><text fill="#000000" font-family="sans-serif" font-size="14" lengthAdjust="spacingAndGlyphs" textLength="75" x="446" y="84.9951">Blockchain</text><ellipse cx="486.5" cy="15" fill="#FEFECE" filter="url(#f1kn4tesogeyiw)" rx="8" ry="8" style="stroke:#A80036;stroke-width:2.0;"/><path d="M486.5,23 L486.5,50 M473.5,31 L499.5,31 M486.5,50 L473.5,65 M486.5,50 L499.5,65 " fill="none" filter="url(#f1kn4tesogeyiw)" style="stroke:#A80036;stroke-width:2.0;"/><text fill="#000000" font-family="sans-serif" font-size="14" lengthAdjust="spacingAndGlyphs" textLength="75" x="446" y="297.0889">Blockchain</text><ellipse cx="486.5" cy="310.3906" fill="#FEFECE" filter="url(#f1kn4tesogeyiw)" rx="8" ry="8" style="stroke:#A80036;stroke-width:2.0;"/><path d="M486.5,318.3906 L486.5,345.3906 M473.5,326.3906 L499.5,326.3906 M486.5,345.3906 L473.5,360.3906 M486.5,345.3906 L499.5,360.3906 " fill="none" filter="url(#f1kn4tesogeyiw)" style="stroke:#A80036;stroke-width:2.0;"/><polygon fill="#A80036" points="294.5,115.4297,304.5,119.4297,294.5,123.4297,298.5,119.4297" style="stroke:#A80036;stroke-width:1.0;"/><line style="stroke:#A80036;stroke-width:1.0;" x1="68.5" x2="300.5" y1="119.4297" y2="119.4297"/><text fill="#000000" font-family="sans-serif" font-size="13" lengthAdjust="spacingAndGlyphs" textLength="214" x="75.5" y="114.3638">provision(uid0, pkMan, ownScript)</text><polygon fill="#A80036" points="79.5,144.5625,69.5,148.5625,79.5,152.5625,75.5,148.5625" style="stroke:#A80036;stroke-width:1.0;"/><line style="stroke:#A80036;stroke-width:1.0;" x1="73.5" x2="305.5" y1="148.5625" y2="148.5625"/><text fill="#000000" font-family="sans-serif" font-size="13" lengthAdjust="spacingAndGlyphs" textLength="104" x="85.5" y="143.4966">sendPK(pkSoc0)</text><path d="M10,163.5625 L87,163.5625 L87,170.5625 L77,180.5625 L10,180.5625 L10,163.5625 " fill="#EEEEEE" style="stroke:#000000;stroke-width:1.0;"/><rect fill="none" height="46.2656" style="stroke:#000000;stroke-width:2.0;" width="436" x="10" y="163.5625"/><text fill="#000000" font-family="sans-serif" font-size="13" font-weight="bold" lengthAdjust="spacingAndGlyphs" textLength="32" x="25" y="176.6294">loop</text><text fill="#000000" font-family="sans-serif" font-size="11" font-weight="bold" lengthAdjust="spacingAndGlyphs" textLength="94" x="102" y="175.7729">[for k in [1..N]]</text><polygon fill="#A80036" points="380.5,197.8281,390.5,201.8281,380.5,205.8281,384.5,201.8281" style="stroke:#A80036;stroke-width:1.0;"/><line style="stroke:#A80036;stroke-width:1.0;" x1="68.5" x2="386.5" y1="201.8281" y2="201.8281"/><text fill="#000000" font-family="sans-serif" font-size="13" lengthAdjust="spacingAndGlyphs" textLength="284" x="75.5" y="196.7622">provision(skSoC(k),uid(k), pkMan, ownScript)</text><polygon fill="#A80036" points="474.5,233.9609,484.5,237.9609,474.5,241.9609,478.5,237.9609" style="stroke:#A80036;stroke-width:1.0;"/><line style="stroke:#A80036;stroke-width:1.0;" x1="68.5" x2="480.5" y1="237.9609" y2="237.9609"/><text fill="#000000" font-family="sans-serif" font-size="13" lengthAdjust="spacingAndGlyphs" textLength="137" x="75.5" y="232.895">newBatch(batchRoot)</text><polygon fill="#A80036" points="79.5,263.0938,69.5,267.0938,79.5,271.0938,75.5,267.0938" style="stroke:#A80036;stroke-width:1.0;"/><line style="stroke:#A80036;stroke-width:1.0;stroke-dasharray:2.0,2.0;" x1="73.5" x2="485.5" y1="267.0938" y2="267.0938"/><text fill="#000000" font-family="sans-serif" font-size="13" lengthAdjust="spacingAndGlyphs" textLength="241" x="85.5" y="262.0278">newBatch() : contractAddr, batchAddr</text><!--MD5=[aeaa2b0694b006b6d7a5abdb501e1f3d]
@startuml
actor Manufacturer
participant "SoC[0]" as SoC_0
collections "SoC[1..N]" as SoC_N
actor Blockchain

Manufacturer -> SoC_0 : provision(uid0, pkMan, ownScript)


SoC_0 -> Manufacturer : sendPK(pkSoc0)

loop for k in [1..N]
	Manufacturer -> SoC_N : provision(skSoC(k),uid(k), pkMan, ownScript)

	' SoC_N -> Manufacturer : sendPK(pkSocN)
end loop


Manufacturer -> Blockchain : newBatch(batchRoot)


Blockchain - -> Manufacturer : newBatch() : contractAddr, batchAddr
@enduml

@startuml
actor Manufacturer
participant "SoC[0]" as SoC_0
collections "SoC[1..N]" as SoC_N
actor Blockchain

Manufacturer -> SoC_0 : provision(uid0, pkMan, ownScript)


SoC_0 -> Manufacturer : sendPK(pkSoc0)

loop for k in [1..N]
	Manufacturer -> SoC_N : provision(skSoC(k),uid(k), pkMan, ownScript)

end loop


Manufacturer -> Blockchain : newBatch(batchRoot)


Blockchain - -> Manufacturer : newBatch() : contractAddr, batchAddr
@enduml

PlantUML version 1.2020.22(Sun Dec 06 09:36:27 UTC 2020)
(GPL source distribution)
Java Runtime: OpenJDK Runtime Environment
JVM: OpenJDK 64-Bit Server VM
Default Encoding: UTF-8
Language: en
Country: null
--></g></svg>