<?xml version="1.0" encoding="UTF-8" standalone="no"?><svg xmlns="http://www.w3.org/2000/svg" xmlns:xlink="http://www.w3.org/1999/xlink" contentScriptType="application/ecmascript" contentStyleType="text/css" height="340px" preserveAspectRatio="none" style="width:455px;height:340px;" version="1.1" viewBox="0 0 455 340" width="455px" zoomAndPan="magnify"><defs><filter height="300%" id="fdugmegj7oc0o" width="300%" x="-1" y="-1"><feGaussianBlur result="blurOut" stdDeviation="2.0"/><feColorMatrix in="blurOut" result="blurOut2" type="matrix" values="0 0 0 0 0 0 0 0 0 0 0 0 0 0 0 0 0 0 .4 0"/><feOffset dx="4.0" dy="4.0" in="blurOut2" result="blurOut3"/><feBlend in="SourceGraphic" in2="blurOut3" mode="normal"/></filter></defs><g><rect fill="#FFFFFF" filter="url(#fdugmegj7oc0o)" height="75.3984" style="stroke:#000000;stroke-width:2.0;" width="419" x="10" y="105.2969"/><line style="stroke:#A80036;stroke-width:1.0;stroke-dasharray:5.0,5.0;" x1="39" x2="39" y1="88.2969" y2="255.9609"/><line style="stroke:#A80036;stroke-width:1.0;stroke-dasharray:5.0,5.0;" x1="321.5" x2="321.5" y1="88.2969" y2="255.9609"/><line style="stroke:#A80036;stroke-width:1.0;stroke-dasharray:5.0,5.0;" x1="412.5" x2="412.5" y1="88.2969" y2="255.9609"/><text fill="#000000" font-family="sans-serif" font-size="14" lengthAdjust="spacingAndGlyphs" textLength="32" x="20" y="84.9951">Alice</text><ellipse cx="39" cy="15" fill="#FEFECE" filter="url(#fdugmegj7oc0o)" rx="8" ry="8" style="stroke:#A80036;stroke-width:2.0;"/><path d="M39,23 L39,50 M26,31 L52,31 M39,50 L26,65 M39,50 L52,65 " fill="none" filter="url(#fdugmegj7oc0o)" style="stroke:#A80036;stroke-width:2.0;"/><text fill="#000000" font-family="sans-serif" font-size="14" lengthAdjust="spacingAndGlyphs" textLength="32" x="20" y="267.9561">Alice</text><ellipse cx="39" cy="281.2578" fill="#FEFECE" filter="url(#fdugmegj7oc0o)" rx="8" ry="8" style="stroke:#A80036;stroke-width:2.0;"/><path d="M39,289.2578 L39,316.2578 M26,297.2578 L52,297.2578 M39,316.2578 L26,331.2578 M39,316.2578 L52,331.2578 " fill="none" filter="url(#fdugmegj7oc0o)" style="stroke:#A80036;stroke-width:2.0;"/><text fill="#000000" font-family="sans-serif" font-size="14" lengthAdjust="spacingAndGlyphs" textLength="91" x="273.5" y="84.9951">Manufacturer</text><ellipse cx="322" cy="15" fill="#FEFECE" filter="url(#fdugmegj7oc0o)" rx="8" ry="8" style="stroke:#A80036;stroke-width:2.0;"/><path d="M322,23 L322,50 M309,31 L335,31 M322,50 L309,65 M322,50 L335,65 " fill="none" filter="url(#fdugmegj7oc0o)" style="stroke:#A80036;stroke-width:2.0;"/><text fill="#000000" font-family="sans-serif" font-size="14" lengthAdjust="spacingAndGlyphs" textLength="91" x="273.5" y="267.9561">Manufacturer</text><ellipse cx="322" cy="281.2578" fill="#FEFECE" filter="url(#fdugmegj7oc0o)" rx="8" ry="8" style="stroke:#A80036;stroke-width:2.0;"/><path d="M322,289.2578 L322,316.2578 M309,297.2578 L335,297.2578 M322,316.2578 L309,331.2578 M322,316.2578 L335,331.2578 " fill="none" filter="url(#fdugmegj7oc0o)" style="stroke:#A80036;stroke-width:2.0;"/><rect fill="#FEFECE" filter="url(#fdugmegj7oc0o)" height="30.2969" style="stroke:#A80036;stroke-width:1.5;" width="61" x="380.5" y="53"/><text fill="#000000" font-family="sans-serif" font-size="14" lengthAdjust="spacingAndGlyphs" textLength="47" x="387.5" y="72.9951">SoC[0]</text><rect fill="#FEFECE" filter="url(#fdugmegj7oc0o)" height="30.2969" style="stroke:#A80036;stroke-width:1.5;" width="61" x="380.5" y="254.9609"/><text fill="#000000" font-family="sans-serif" font-size="14" lengthAdjust="spacingAndGlyphs" textLength="47" x="387.5" y="274.9561">SoC[0]</text><path d="M10,105.2969 L424,105.2969 L424,112.2969 L414,122.2969 L10,122.2969 L10,105.2969 " fill="#EEEEEE" style="stroke:#000000;stroke-width:1.0;"/><rect fill="none" height="75.3984" style="stroke:#000000;stroke-width:2.0;" width="419" x="10" y="105.2969"/><text fill="#000000" font-family="sans-serif" font-size="13" font-weight="bold" lengthAdjust="spacingAndGlyphs" textLength="369" x="25" y="118.3638">only if Manufacturer have rights on concerned IPs</text><polygon fill="#A80036" points="310,139.5625,320,143.5625,310,147.5625,314,143.5625" style="stroke:#A80036;stroke-width:1.0;"/><line style="stroke:#A80036;stroke-width:1.0;" x1="39" x2="316" y1="143.5625" y2="143.5625"/><text fill="#000000" font-family="sans-serif" font-size="13" lengthAdjust="spacingAndGlyphs" textLength="219" x="46" y="138.4966">sendNewScript(configModification)</text><polygon fill="#A80036" points="50,168.6953,40,172.6953,50,176.6953,46,172.6953" style="stroke:#A80036;stroke-width:1.0;"/><line style="stroke:#A80036;stroke-width:1.0;" x1="44" x2="321" y1="172.6953" y2="172.6953"/><text fill="#000000" font-family="sans-serif" font-size="13" lengthAdjust="spacingAndGlyphs" textLength="259" x="56" y="167.6294">newScriptResp(signedconfigModification)</text><polygon fill="#A80036" points="401,204.8281,411,208.8281,401,212.8281,405,208.8281" style="stroke:#A80036;stroke-width:1.0;"/><line style="stroke:#A80036;stroke-width:1.0;" x1="39" x2="407" y1="208.8281" y2="208.8281"/><text fill="#000000" font-family="sans-serif" font-size="13" lengthAdjust="spacingAndGlyphs" textLength="248" x="46" y="203.7622">updateScript(signedconfigModification)</text><polygon fill="#A80036" points="50,233.9609,40,237.9609,50,241.9609,46,237.9609" style="stroke:#A80036;stroke-width:1.0;"/><line style="stroke:#A80036;stroke-width:1.0;" x1="44" x2="412" y1="237.9609" y2="237.9609"/><text fill="#000000" font-family="sans-serif" font-size="13" lengthAdjust="spacingAndGlyphs" textLength="138" x="56" y="232.895">scriptResp(newScript)</text><!--MD5=[90c9ba4c457ac322b8b96854d449eaba]
@startuml
actor Alice
actor Manufacturer
participant "SoC[0]" as SoC_0

group only if Manufacturer have rights on concerned IPs
Alice -> Manufacturer : sendNewScript(configModification)
Manufacturer -> Alice: newScriptResp(signedconfigModification)
end

Alice -> SoC_0 : updateScript(signedconfigModification)

SoC_0 -> Alice : scriptResp(newScript)
@enduml

PlantUML version 1.2020.22(Sun Dec 06 09:36:27 UTC 2020)
(GPL source distribution)
Java Runtime: OpenJDK Runtime Environment
JVM: OpenJDK 64-Bit Server VM
Default Encoding: UTF-8
Language: en
Country: null
--></g></svg>