<?xml version="1.0" encoding="us-ascii" standalone="no"?><svg xmlns="http://www.w3.org/2000/svg" xmlns:xlink="http://www.w3.org/1999/xlink" contentStyleType="text/css" height="236px" preserveAspectRatio="none" style="width:404px;height:236px;background:#FFFFFF;" version="1.1" viewBox="0 0 404 236" width="404px" zoomAndPan="magnify"><defs/><g><ellipse cx="48.5" cy="24" fill="#222222" rx="10" ry="10" style="stroke:none;stroke-width:1.0;"/><rect fill="#F1F1F1" height="33.9688" rx="12.5" ry="12.5" style="stroke:#181818;stroke-width:0.5;" width="109" x="79" y="7"/><text fill="#000000" font-family="sans-serif" font-size="12" lengthAdjust="spacing" textLength="89" x="89" y="28.1387">IC manufacture</text><rect fill="#F1F1F1" height="47.9375" rx="12.5" ry="12.5" style="stroke:#181818;stroke-width:0.5;" width="99" x="84" y="81"/><text fill="#000000" font-family="sans-serif" font-size="12" lengthAdjust="spacing" textLength="56" x="94" y="102.1387">OEM/EMS</text><text fill="#000000" font-family="sans-serif" font-size="12" lengthAdjust="spacing" textLength="79" x="94" y="116.1074">manufacturer</text><rect fill="#F1F1F1" height="33.9688" rx="12.5" ry="12.5" style="stroke:#181818;stroke-width:0.5;" width="115" x="203" y="88"/><text fill="#000000" font-family="sans-serif" font-size="12" lengthAdjust="spacing" textLength="95" x="213" y="109.1387">Rental agencies</text><rect fill="#F1F1F1" height="61.9063" rx="12.5" ry="12.5" style="stroke:#181818;stroke-width:0.5;" width="95" x="7" y="169"/><text fill="#000000" font-family="sans-serif" font-size="12" lengthAdjust="spacing" textLength="70" x="17" y="190.1387">Distributors</text><text fill="#000000" font-family="sans-serif" font-size="12" lengthAdjust="spacing" textLength="75" x="17" y="204.1074">Wholesalers</text><text fill="#000000" font-family="sans-serif" font-size="12" lengthAdjust="spacing" textLength="52" x="17" y="218.0762">Retailers</text><rect fill="#F1F1F1" height="33.9688" rx="12.5" ry="12.5" style="stroke:#181818;stroke-width:0.5;" width="78" x="122.5" y="183"/><text fill="#000000" font-family="sans-serif" font-size="12" lengthAdjust="spacing" textLength="58" x="132.5" y="204.1387">Customer</text><rect fill="#F1F1F1" height="33.9688" rx="12.5" ry="12.5" style="stroke:#181818;stroke-width:0.5;" width="80" x="220.5" y="183"/><text fill="#000000" font-family="sans-serif" font-size="12" lengthAdjust="spacing" textLength="60" x="230.5" y="204.1387">End of life</text><rect fill="#F1F1F1" height="33.9688" rx="12.5" ry="12.5" style="stroke:#181818;stroke-width:0.5;" width="60" x="338.5" y="88"/><text fill="#000000" font-family="sans-serif" font-size="12" lengthAdjust="spacing" textLength="40" x="348.5" y="109.1387">Tenant</text><ellipse cx="330.5" cy="200" fill="none" rx="10" ry="10" style="stroke:#222222;stroke-width:1.0;"/><ellipse cx="331" cy="200.5" fill="#222222" rx="6" ry="6" style="stroke:none;stroke-width:1.0;"/><!--link start to IC manufacture--><g id="link_start_IC manufacture"><path d="M58.793,24 C63.8269,24 68.8609,24 73.8949,24 " fill="none" id="start-to-IC manufacture" style="stroke:#181818;stroke-width:1.0;"/><polygon fill="#181818" points="78.9288,24,69.9288,20,73.9288,24,69.9288,28,78.9288,24" style="stroke:#181818;stroke-width:1.0;"/></g><!--link IC manufacture to OEM/EMS\nmanufacturer--><g id="link_IC manufacture_OEM/EMS\nmanufacturer"><path d="M133.5,41.369 C133.5,51.245 133.5,64.101 133.5,75.593 " fill="none" id="IC manufacture-to-OEM/EMS\nmanufacturer" style="stroke:#181818;stroke-width:1.0;"/><polygon fill="#181818" points="133.5,80.761,137.5,71.761,133.5,75.761,129.5,71.761,133.5,80.761" style="stroke:#181818;stroke-width:1.0;"/></g><!--link OEM/EMS\nmanufacturer to Rental agencies--><g id="link_OEM/EMS\nmanufacturer_Rental agencies"><path d="M183.109,105 C187.92,105 192.73,105 197.54,105 " fill="none" id="OEM/EMS\nmanufacturer-to-Rental agencies" style="stroke:#181818;stroke-width:1.0;"/><polygon fill="#181818" points="202.759,105,193.759,101,197.759,105,193.759,109,202.759,105" style="stroke:#181818;stroke-width:1.0;"/></g><!--link OEM/EMS\nmanufacturer to Distributors\nWholesalers\nRetailers--><g id="link_OEM/EMS\nmanufacturer_Distributors\nWholesalers\nRetailers"><path d="M113.565,129.468 C104.4481,140.2003 93.471,153.1228 83.4664,164.9003 " fill="none" id="OEM/EMS\nmanufacturer-to-Distributors\nWholesalers\nRetailers" style="stroke:#181818;stroke-width:1.0;"/><polygon fill="#181818" points="80.1149,168.8457,88.9902,164.5762,83.352,165.035,82.8932,159.3968,80.1149,168.8457" style="stroke:#181818;stroke-width:1.0;"/></g><!--link Distributors\nWholesalers\nRetailers to Customer--><g id="link_Distributors\nWholesalers\nRetailers_Customer"><path d="M102.1484,200 C107.029,200 111.91,200 116.791,200 " fill="none" id="Distributors\nWholesalers\nRetailers-to-Customer" style="stroke:#181818;stroke-width:1.0;"/><polygon fill="#181818" points="122.087,200,113.087,196,117.087,200,113.087,204,122.087,200" style="stroke:#181818;stroke-width:1.0;"/></g><!--link Customer to End of life--><g id="link_Customer_End of life"><path d="M200.559,200 C205.373,200 210.188,200 215.002,200 " fill="none" id="Customer-to-End of life" style="stroke:#181818;stroke-width:1.0;"/><polygon fill="#181818" points="220.227,200,211.227,196,215.227,200,211.227,204,220.227,200" style="stroke:#181818;stroke-width:1.0;"/></g><!--link Rental agencies to End of life--><g id="link_Rental agencies_End of life"><path d="M260.5,122.199 C260.5,137.6686 260.5,161.0622 260.5,177.965 " fill="none" id="Rental agencies-to-End of life" style="stroke:#181818;stroke-width:1.0;"/><polygon fill="#181818" points="260.5,182.9863,264.5,173.9863,260.5,177.9863,256.5,173.9863,260.5,182.9863" style="stroke:#181818;stroke-width:1.0;"/></g><!--link End of life to OEM/EMS\nmanufacturer--><g id="link_End of life_OEM/EMS\nmanufacturer"><path d="M238.345,182.7765 C219.305,168.8338 191.492,148.4664 169.296,132.2125 " fill="none" id="End of life-to-OEM/EMS\nmanufacturer" style="stroke:#181818;stroke-width:1.0;"/><polygon fill="#181818" points="165.22,129.228,170.118,137.7726,169.254,132.1821,174.8445,131.3181,165.22,129.228" style="stroke:#181818;stroke-width:1.0;"/></g><!--link Rental agencies to Tenant--><g id="link_Rental agencies_Tenant"><path d="M318.297,117.687 C323.298,117.521 328.298,117.027 333.299,116.205 " fill="none" id="Rental agencies-to-Tenant" style="stroke:#181818;stroke-width:1.0;"/><polygon fill="#181818" points="338.3,115.273,328.7196,112.9893,333.3846,116.1889,330.185,120.854,338.3,115.273" style="stroke:#181818;stroke-width:1.0;"/></g><!--link Tenant to Rental agencies--><g id="link_Tenant_Rental agencies"><path d="M338.3,94.727 C333.299,93.686 328.298,92.973 323.298,92.588 " fill="none" id="Tenant-to-Rental agencies" style="stroke:#181818;stroke-width:1.0;"/><polygon fill="#181818" points="318.297,92.313,327.0627,96.8033,323.2894,92.5888,327.5039,88.8155,318.297,92.313" style="stroke:#181818;stroke-width:1.0;"/></g><!--link End of life to end--><g id="link_End of life_end"><path d="M300.695,200 C305.483,200 310.271,200 315.059,200 " fill="none" id="End of life-to-end" style="stroke:#181818;stroke-width:1.0;"/><polygon fill="#181818" points="320.255,200,311.255,196,315.255,200,311.255,204,320.255,200" style="stroke:#181818;stroke-width:1.0;"/></g><!--SRC=[VKyn3eCm3DnvXSK4IAW_w48PEg1Aj58N5XUSDb9mfCJvVnFKWGhQoJxVoNTNL2NKHyZF3Sp8GU4emL6UrUbuQRj3srq7Nb4kSf7gYGKDu9DurEJpx8SOwYd9JzgBquyWrlc1xozhoAEX17eIr6cDZrtIDi6BdHUZ1RSyWLLWj8gvDiQmbQmH_2ko- -n6Z2pPPy9-sM-B5BEeoZS0]--></g></svg>